<mxfile host="Electron" modified="2024-07-12T09:04:54.128Z" agent="Mozilla/5.0 (Windows NT 10.0; Win64; x64) AppleWebKit/537.36 (KHTML, like Gecko) draw.io/24.5.3 Chrome/124.0.6367.207 Electron/30.0.6 Safari/537.36" etag="OBV5So5H5DEQXxnYOYs3" version="24.5.3" type="device">
  <diagram name="Seite-1" id="wwn4yQSQ7MJp2Me2dEBf">
    <mxGraphModel dx="2062" dy="731" grid="1" gridSize="10" guides="1" tooltips="1" connect="1" arrows="1" fold="1" page="1" pageScale="1" pageWidth="827" pageHeight="1169" math="0" shadow="0">
      <root>
        <mxCell id="0" />
        <mxCell id="1" parent="0" />
        <mxCell id="0YVKLuxaaTDRTuJXz4Lc-6" style="edgeStyle=orthogonalEdgeStyle;rounded=0;orthogonalLoop=1;jettySize=auto;html=1;exitX=0;exitY=0.5;exitDx=0;exitDy=0;fontSize=20;" parent="1" source="0YVKLuxaaTDRTuJXz4Lc-3" target="NV1RmtdTw3If-MUejDQh-7" edge="1">
          <mxGeometry relative="1" as="geometry">
            <Array as="points">
              <mxPoint x="30" y="160" />
            </Array>
            <mxPoint x="32" y="200" as="targetPoint" />
          </mxGeometry>
        </mxCell>
        <mxCell id="0YVKLuxaaTDRTuJXz4Lc-9" value="Left" style="edgeLabel;html=1;align=center;verticalAlign=middle;resizable=0;points=[];fontSize=20;" parent="0YVKLuxaaTDRTuJXz4Lc-6" vertex="1" connectable="0">
          <mxGeometry x="0.156" y="-1" relative="1" as="geometry">
            <mxPoint x="41" y="-1" as="offset" />
          </mxGeometry>
        </mxCell>
        <mxCell id="0YVKLuxaaTDRTuJXz4Lc-8" style="edgeStyle=orthogonalEdgeStyle;rounded=0;orthogonalLoop=1;jettySize=auto;html=1;exitX=1;exitY=0.5;exitDx=0;exitDy=0;fontSize=20;entryX=0.5;entryY=0;entryDx=0;entryDy=0;" parent="1" source="0YVKLuxaaTDRTuJXz4Lc-3" target="NV1RmtdTw3If-MUejDQh-8" edge="1">
          <mxGeometry relative="1" as="geometry">
            <Array as="points">
              <mxPoint x="553" y="160" />
            </Array>
            <mxPoint x="553" y="220" as="targetPoint" />
          </mxGeometry>
        </mxCell>
        <mxCell id="0YVKLuxaaTDRTuJXz4Lc-10" value="Right" style="edgeLabel;html=1;align=center;verticalAlign=middle;resizable=0;points=[];fontSize=20;" parent="0YVKLuxaaTDRTuJXz4Lc-8" vertex="1" connectable="0">
          <mxGeometry x="0.035" relative="1" as="geometry">
            <mxPoint x="-37" as="offset" />
          </mxGeometry>
        </mxCell>
        <mxCell id="0YVKLuxaaTDRTuJXz4Lc-3" value="Button" style="rhombus;whiteSpace=wrap;html=1;fontSize=20;" parent="1" vertex="1">
          <mxGeometry x="273.29" y="120" width="80" height="80" as="geometry" />
        </mxCell>
        <mxCell id="NV1RmtdTw3If-MUejDQh-5" style="edgeStyle=orthogonalEdgeStyle;rounded=0;orthogonalLoop=1;jettySize=auto;html=1;entryX=0;entryY=0.5;entryDx=0;entryDy=0;" edge="1" parent="1" source="0YVKLuxaaTDRTuJXz4Lc-4" target="NV1RmtdTw3If-MUejDQh-4">
          <mxGeometry relative="1" as="geometry" />
        </mxCell>
        <mxCell id="0YVKLuxaaTDRTuJXz4Lc-4" value="Start" style="rounded=1;whiteSpace=wrap;html=1;fontSize=20;" parent="1" vertex="1">
          <mxGeometry x="30" y="40" width="120" height="60" as="geometry" />
        </mxCell>
        <mxCell id="0YVKLuxaaTDRTuJXz4Lc-29" style="edgeStyle=orthogonalEdgeStyle;rounded=0;orthogonalLoop=1;jettySize=auto;html=1;entryX=0.5;entryY=0;entryDx=0;entryDy=0;fontSize=20;" parent="1" source="0YVKLuxaaTDRTuJXz4Lc-5" target="0YVKLuxaaTDRTuJXz4Lc-28" edge="1">
          <mxGeometry relative="1" as="geometry" />
        </mxCell>
        <mxCell id="0YVKLuxaaTDRTuJXz4Lc-5" value="Note einlegen" style="rounded=0;whiteSpace=wrap;html=1;fontSize=20;" parent="1" vertex="1">
          <mxGeometry x="-28" y="330" width="120" height="60" as="geometry" />
        </mxCell>
        <mxCell id="0YVKLuxaaTDRTuJXz4Lc-13" style="edgeStyle=orthogonalEdgeStyle;rounded=0;orthogonalLoop=1;jettySize=auto;html=1;entryX=0.5;entryY=0;entryDx=0;entryDy=0;fontSize=20;" parent="1" source="0YVKLuxaaTDRTuJXz4Lc-7" target="0YVKLuxaaTDRTuJXz4Lc-12" edge="1">
          <mxGeometry relative="1" as="geometry" />
        </mxCell>
        <mxCell id="0YVKLuxaaTDRTuJXz4Lc-7" value="Morse Code eingeben" style="rounded=0;whiteSpace=wrap;html=1;fontSize=20;" parent="1" vertex="1">
          <mxGeometry x="493" y="330" width="120" height="60" as="geometry" />
        </mxCell>
        <mxCell id="0YVKLuxaaTDRTuJXz4Lc-16" style="edgeStyle=orthogonalEdgeStyle;rounded=0;orthogonalLoop=1;jettySize=auto;html=1;entryX=0.5;entryY=1;entryDx=0;entryDy=0;fontSize=20;exitX=1;exitY=0.5;exitDx=0;exitDy=0;" parent="1" source="0YVKLuxaaTDRTuJXz4Lc-12" target="0YVKLuxaaTDRTuJXz4Lc-24" edge="1">
          <mxGeometry relative="1" as="geometry">
            <mxPoint x="698" y="440" as="targetPoint" />
            <Array as="points">
              <mxPoint x="718" y="490" />
            </Array>
          </mxGeometry>
        </mxCell>
        <mxCell id="0YVKLuxaaTDRTuJXz4Lc-26" value="Morse Code" style="edgeLabel;html=1;align=center;verticalAlign=middle;resizable=0;points=[];fontSize=20;" parent="0YVKLuxaaTDRTuJXz4Lc-16" vertex="1" connectable="0">
          <mxGeometry x="-0.0219" y="-1" relative="1" as="geometry">
            <mxPoint x="2" y="-51" as="offset" />
          </mxGeometry>
        </mxCell>
        <mxCell id="0YVKLuxaaTDRTuJXz4Lc-17" style="edgeStyle=orthogonalEdgeStyle;rounded=0;orthogonalLoop=1;jettySize=auto;html=1;exitX=0;exitY=0.5;exitDx=0;exitDy=0;entryX=0.5;entryY=1;entryDx=0;entryDy=0;fontSize=20;" parent="1" source="0YVKLuxaaTDRTuJXz4Lc-12" target="0YVKLuxaaTDRTuJXz4Lc-22" edge="1">
          <mxGeometry relative="1" as="geometry">
            <mxPoint x="498" y="509.95000000000005" as="sourcePoint" />
            <mxPoint x="368" y="479.95" as="targetPoint" />
            <Array as="points">
              <mxPoint x="382" y="490" />
            </Array>
          </mxGeometry>
        </mxCell>
        <mxCell id="0YVKLuxaaTDRTuJXz4Lc-19" value="Remove Letter/Word" style="edgeLabel;html=1;align=center;verticalAlign=middle;resizable=0;points=[];fontSize=20;" parent="0YVKLuxaaTDRTuJXz4Lc-17" vertex="1" connectable="0">
          <mxGeometry x="0.0014" relative="1" as="geometry">
            <mxPoint x="-3" y="-50" as="offset" />
          </mxGeometry>
        </mxCell>
        <mxCell id="0YVKLuxaaTDRTuJXz4Lc-20" style="edgeStyle=orthogonalEdgeStyle;rounded=0;orthogonalLoop=1;jettySize=auto;html=1;entryX=1;entryY=0.5;entryDx=0;entryDy=0;fontSize=20;exitX=0.5;exitY=1;exitDx=0;exitDy=0;" parent="1" source="0YVKLuxaaTDRTuJXz4Lc-12" target="0YVKLuxaaTDRTuJXz4Lc-14" edge="1">
          <mxGeometry relative="1" as="geometry">
            <mxPoint x="350" y="550" as="targetPoint" />
            <Array as="points">
              <mxPoint x="553" y="555" />
            </Array>
          </mxGeometry>
        </mxCell>
        <mxCell id="0YVKLuxaaTDRTuJXz4Lc-21" value="Ende" style="edgeLabel;html=1;align=center;verticalAlign=middle;resizable=0;points=[];fontSize=20;" parent="0YVKLuxaaTDRTuJXz4Lc-20" vertex="1" connectable="0">
          <mxGeometry x="-0.4649" y="1" relative="1" as="geometry">
            <mxPoint x="-82" y="-1" as="offset" />
          </mxGeometry>
        </mxCell>
        <mxCell id="0YVKLuxaaTDRTuJXz4Lc-12" value="Eingabe&lt;div style=&quot;font-size: 20px;&quot;&gt;&amp;nbsp;lesen&lt;/div&gt;" style="rhombus;whiteSpace=wrap;html=1;fontSize=20;" parent="1" vertex="1">
          <mxGeometry x="498" y="435" width="110" height="110" as="geometry" />
        </mxCell>
        <mxCell id="0YVKLuxaaTDRTuJXz4Lc-14" value="Printen" style="rounded=0;whiteSpace=wrap;html=1;fontSize=20;" parent="1" vertex="1">
          <mxGeometry x="230" y="525" width="120" height="60" as="geometry" />
        </mxCell>
        <mxCell id="0YVKLuxaaTDRTuJXz4Lc-23" style="edgeStyle=orthogonalEdgeStyle;rounded=0;orthogonalLoop=1;jettySize=auto;html=1;entryX=-0.028;entryY=0.507;entryDx=0;entryDy=0;fontSize=20;entryPerimeter=0;exitX=1;exitY=0.5;exitDx=0;exitDy=0;" parent="1" source="0YVKLuxaaTDRTuJXz4Lc-22" target="0YVKLuxaaTDRTuJXz4Lc-7" edge="1">
          <mxGeometry relative="1" as="geometry">
            <Array as="points">
              <mxPoint x="442" y="360" />
            </Array>
            <mxPoint x="311.99" y="390" as="sourcePoint" />
            <mxPoint x="487.99" y="390" as="targetPoint" />
          </mxGeometry>
        </mxCell>
        <mxCell id="0YVKLuxaaTDRTuJXz4Lc-22" value="Letter/Word lÃ¶schen" style="rounded=0;whiteSpace=wrap;html=1;fontSize=20;" parent="1" vertex="1">
          <mxGeometry x="322" y="330" width="120" height="60" as="geometry" />
        </mxCell>
        <mxCell id="NV1RmtdTw3If-MUejDQh-1" style="edgeStyle=orthogonalEdgeStyle;rounded=0;orthogonalLoop=1;jettySize=auto;html=1;exitX=0;exitY=0.5;exitDx=0;exitDy=0;entryX=1;entryY=0.5;entryDx=0;entryDy=0;" edge="1" parent="1" source="0YVKLuxaaTDRTuJXz4Lc-24" target="0YVKLuxaaTDRTuJXz4Lc-7">
          <mxGeometry relative="1" as="geometry" />
        </mxCell>
        <mxCell id="0YVKLuxaaTDRTuJXz4Lc-24" value="Zeichen speichern" style="rounded=0;whiteSpace=wrap;html=1;fontSize=20;" parent="1" vertex="1">
          <mxGeometry x="658" y="330" width="120" height="60" as="geometry" />
        </mxCell>
        <mxCell id="0YVKLuxaaTDRTuJXz4Lc-35" style="edgeStyle=orthogonalEdgeStyle;rounded=0;orthogonalLoop=1;jettySize=auto;html=1;entryX=0.5;entryY=1;entryDx=0;entryDy=0;fontSize=20;" parent="1" source="0YVKLuxaaTDRTuJXz4Lc-28" target="0YVKLuxaaTDRTuJXz4Lc-34" edge="1">
          <mxGeometry relative="1" as="geometry" />
        </mxCell>
        <mxCell id="0YVKLuxaaTDRTuJXz4Lc-36" value="Right" style="edgeLabel;html=1;align=center;verticalAlign=middle;resizable=0;points=[];fontSize=20;" parent="0YVKLuxaaTDRTuJXz4Lc-35" vertex="1" connectable="0">
          <mxGeometry x="-0.2571" relative="1" as="geometry">
            <mxPoint x="-31" as="offset" />
          </mxGeometry>
        </mxCell>
        <mxCell id="0YVKLuxaaTDRTuJXz4Lc-38" style="edgeStyle=orthogonalEdgeStyle;rounded=0;orthogonalLoop=1;jettySize=auto;html=1;entryX=0;entryY=0.5;entryDx=0;entryDy=0;fontSize=20;exitX=0.5;exitY=1;exitDx=0;exitDy=0;" parent="1" source="0YVKLuxaaTDRTuJXz4Lc-28" target="0YVKLuxaaTDRTuJXz4Lc-14" edge="1">
          <mxGeometry relative="1" as="geometry">
            <Array as="points">
              <mxPoint x="30" y="555" />
            </Array>
          </mxGeometry>
        </mxCell>
        <mxCell id="0YVKLuxaaTDRTuJXz4Lc-39" value="Up" style="edgeLabel;html=1;align=center;verticalAlign=middle;resizable=0;points=[];fontSize=20;" parent="0YVKLuxaaTDRTuJXz4Lc-38" vertex="1" connectable="0">
          <mxGeometry x="-0.6459" relative="1" as="geometry">
            <mxPoint x="85" as="offset" />
          </mxGeometry>
        </mxCell>
        <mxCell id="0YVKLuxaaTDRTuJXz4Lc-28" value="Button" style="rhombus;whiteSpace=wrap;html=1;fontSize=20;" parent="1" vertex="1">
          <mxGeometry x="-8" y="440" width="80" height="80" as="geometry" />
        </mxCell>
        <mxCell id="0YVKLuxaaTDRTuJXz4Lc-30" style="edgeStyle=orthogonalEdgeStyle;rounded=0;orthogonalLoop=1;jettySize=auto;html=1;exitX=0;exitY=0.5;exitDx=0;exitDy=0;entryX=0.5;entryY=1;entryDx=0;entryDy=0;fontSize=20;" parent="1" target="0YVKLuxaaTDRTuJXz4Lc-32" edge="1">
          <mxGeometry relative="1" as="geometry">
            <mxPoint x="-8" y="480" as="sourcePoint" />
            <mxPoint x="-28" y="520" as="targetPoint" />
            <Array as="points" />
          </mxGeometry>
        </mxCell>
        <mxCell id="0YVKLuxaaTDRTuJXz4Lc-31" value="Left" style="edgeLabel;html=1;align=center;verticalAlign=middle;resizable=0;points=[];fontSize=20;" parent="0YVKLuxaaTDRTuJXz4Lc-30" vertex="1" connectable="0">
          <mxGeometry x="0.0014" relative="1" as="geometry">
            <mxPoint x="50" as="offset" />
          </mxGeometry>
        </mxCell>
        <mxCell id="NV1RmtdTw3If-MUejDQh-3" style="edgeStyle=orthogonalEdgeStyle;rounded=0;orthogonalLoop=1;jettySize=auto;html=1;entryX=0;entryY=0.5;entryDx=0;entryDy=0;" edge="1" parent="1" source="0YVKLuxaaTDRTuJXz4Lc-32" target="0YVKLuxaaTDRTuJXz4Lc-5">
          <mxGeometry relative="1" as="geometry" />
        </mxCell>
        <mxCell id="0YVKLuxaaTDRTuJXz4Lc-32" value="Note speichern" style="rounded=0;whiteSpace=wrap;html=1;fontSize=20;" parent="1" vertex="1">
          <mxGeometry x="-198" y="330" width="120" height="60" as="geometry" />
        </mxCell>
        <mxCell id="NV1RmtdTw3If-MUejDQh-2" style="edgeStyle=orthogonalEdgeStyle;rounded=0;orthogonalLoop=1;jettySize=auto;html=1;entryX=1;entryY=0.5;entryDx=0;entryDy=0;" edge="1" parent="1" source="0YVKLuxaaTDRTuJXz4Lc-34" target="0YVKLuxaaTDRTuJXz4Lc-5">
          <mxGeometry relative="1" as="geometry" />
        </mxCell>
        <mxCell id="0YVKLuxaaTDRTuJXz4Lc-34" value="Note verwerfen" style="rounded=0;whiteSpace=wrap;html=1;fontSize=20;" parent="1" vertex="1">
          <mxGeometry x="142" y="330" width="120" height="60" as="geometry" />
        </mxCell>
        <mxCell id="0YVKLuxaaTDRTuJXz4Lc-42" style="edgeStyle=orthogonalEdgeStyle;rounded=0;orthogonalLoop=1;jettySize=auto;html=1;entryX=0.5;entryY=0;entryDx=0;entryDy=0;fontSize=20;" parent="1" target="0YVKLuxaaTDRTuJXz4Lc-45" edge="1">
          <mxGeometry relative="1" as="geometry">
            <mxPoint x="290" y="585" as="sourcePoint" />
          </mxGeometry>
        </mxCell>
        <mxCell id="0YVKLuxaaTDRTuJXz4Lc-43" style="edgeStyle=orthogonalEdgeStyle;rounded=0;orthogonalLoop=1;jettySize=auto;html=1;fontSize=20;entryX=0;entryY=0.5;entryDx=0;entryDy=0;" parent="1" source="0YVKLuxaaTDRTuJXz4Lc-45" edge="1" target="NV1RmtdTw3If-MUejDQh-11">
          <mxGeometry relative="1" as="geometry">
            <mxPoint x="420" y="675" as="targetPoint" />
          </mxGeometry>
        </mxCell>
        <mxCell id="0YVKLuxaaTDRTuJXz4Lc-44" value="Right" style="edgeLabel;html=1;align=center;verticalAlign=middle;resizable=0;points=[];fontSize=20;" parent="0YVKLuxaaTDRTuJXz4Lc-43" vertex="1" connectable="0">
          <mxGeometry x="-0.2571" relative="1" as="geometry">
            <mxPoint as="offset" />
          </mxGeometry>
        </mxCell>
        <mxCell id="NV1RmtdTw3If-MUejDQh-12" value="&lt;font style=&quot;font-size: 20px;&quot;&gt;/ /&lt;/font&gt;" style="edgeLabel;html=1;align=center;verticalAlign=middle;resizable=0;points=[];" vertex="1" connectable="0" parent="0YVKLuxaaTDRTuJXz4Lc-43">
          <mxGeometry x="0.4662" y="-2" relative="1" as="geometry">
            <mxPoint x="-3" as="offset" />
          </mxGeometry>
        </mxCell>
        <mxCell id="0YVKLuxaaTDRTuJXz4Lc-49" style="edgeStyle=orthogonalEdgeStyle;rounded=0;orthogonalLoop=1;jettySize=auto;html=1;fontSize=20;entryX=1;entryY=0.5;entryDx=0;entryDy=0;" parent="1" source="0YVKLuxaaTDRTuJXz4Lc-45" target="0YVKLuxaaTDRTuJXz4Lc-53" edge="1">
          <mxGeometry relative="1" as="geometry">
            <mxPoint x="150" y="675" as="targetPoint" />
            <Array as="points">
              <mxPoint x="200" y="675" />
              <mxPoint x="142" y="676" />
            </Array>
          </mxGeometry>
        </mxCell>
        <mxCell id="0YVKLuxaaTDRTuJXz4Lc-50" value="Left" style="edgeLabel;html=1;align=center;verticalAlign=middle;resizable=0;points=[];fontSize=20;" parent="0YVKLuxaaTDRTuJXz4Lc-49" vertex="1" connectable="0">
          <mxGeometry x="-0.2291" y="1" relative="1" as="geometry">
            <mxPoint x="-6" y="-1" as="offset" />
          </mxGeometry>
        </mxCell>
        <mxCell id="0YVKLuxaaTDRTuJXz4Lc-45" value="Button" style="rhombus;whiteSpace=wrap;html=1;fontSize=20;" parent="1" vertex="1">
          <mxGeometry x="250" y="635" width="80" height="80" as="geometry" />
        </mxCell>
        <mxCell id="0YVKLuxaaTDRTuJXz4Lc-53" value="Ausgabe Blatt" style="rounded=0;whiteSpace=wrap;html=1;fontSize=20;" parent="1" vertex="1">
          <mxGeometry x="22" y="645" width="120" height="60" as="geometry" />
        </mxCell>
        <mxCell id="NV1RmtdTw3If-MUejDQh-6" style="edgeStyle=orthogonalEdgeStyle;rounded=0;orthogonalLoop=1;jettySize=auto;html=1;exitX=0.5;exitY=1;exitDx=0;exitDy=0;entryX=0.5;entryY=0;entryDx=0;entryDy=0;" edge="1" parent="1" source="NV1RmtdTw3If-MUejDQh-4" target="0YVKLuxaaTDRTuJXz4Lc-3">
          <mxGeometry relative="1" as="geometry" />
        </mxCell>
        <mxCell id="NV1RmtdTw3If-MUejDQh-4" value="&lt;font style=&quot;font-size: 20px;&quot;&gt;Modus Auswahl&lt;/font&gt;" style="rounded=0;whiteSpace=wrap;html=1;" vertex="1" parent="1">
          <mxGeometry x="253.29000000000002" y="40" width="120" height="60" as="geometry" />
        </mxCell>
        <mxCell id="NV1RmtdTw3If-MUejDQh-10" style="edgeStyle=orthogonalEdgeStyle;rounded=0;orthogonalLoop=1;jettySize=auto;html=1;" edge="1" parent="1" source="NV1RmtdTw3If-MUejDQh-7" target="0YVKLuxaaTDRTuJXz4Lc-5">
          <mxGeometry relative="1" as="geometry" />
        </mxCell>
        <mxCell id="NV1RmtdTw3If-MUejDQh-7" value="&lt;font style=&quot;font-size: 20px;&quot;&gt;Musik&amp;nbsp;&lt;/font&gt;&lt;div&gt;&lt;font style=&quot;font-size: 20px;&quot;&gt;Modus&lt;/font&gt;&lt;/div&gt;" style="rounded=0;whiteSpace=wrap;html=1;" vertex="1" parent="1">
          <mxGeometry x="-28" y="220" width="120" height="60" as="geometry" />
        </mxCell>
        <mxCell id="NV1RmtdTw3If-MUejDQh-9" style="edgeStyle=orthogonalEdgeStyle;rounded=0;orthogonalLoop=1;jettySize=auto;html=1;entryX=0.5;entryY=0;entryDx=0;entryDy=0;" edge="1" parent="1" source="NV1RmtdTw3If-MUejDQh-8" target="0YVKLuxaaTDRTuJXz4Lc-7">
          <mxGeometry relative="1" as="geometry" />
        </mxCell>
        <mxCell id="NV1RmtdTw3If-MUejDQh-8" value="&lt;font style=&quot;font-size: 20px;&quot;&gt;Morsen Modus&lt;/font&gt;" style="rounded=0;whiteSpace=wrap;html=1;" vertex="1" parent="1">
          <mxGeometry x="493" y="220" width="120" height="60" as="geometry" />
        </mxCell>
        <mxCell id="NV1RmtdTw3If-MUejDQh-11" value="&lt;font style=&quot;font-size: 20px;&quot;&gt;Modus Auswahl&lt;/font&gt;" style="rounded=0;whiteSpace=wrap;html=1;" vertex="1" parent="1">
          <mxGeometry x="470" y="645" width="120" height="60" as="geometry" />
        </mxCell>
      </root>
    </mxGraphModel>
  </diagram>
</mxfile>
